<svg id="svg-icon" viewBox="0 0 40 40" fill="none"
                    xmlns="http://www.w3.org/2000/svg">
                    <path id="svg-red" class="svg-part active"
                        d="M39.9915 19.4155C40.0969 23.0222 39.2247 26.5903 37.4671 29.7417C35.7096 32.893 33.1322 35.5101 30.0082 37.3158L27.0057 32.121C29.1926 30.8571 30.9967 29.0251 32.227 26.8192C33.4573 24.6132 34.0678 22.1155 33.994 19.5908L39.9915 19.4155Z"
                        fill="#EC0000" fill-opacity="0.3" />
                    <path id="svg-blue" class="svg-part"
                        d="M30.114 37.2542C27.0975 39.0224 23.6701 39.9689 20.1737 39.9992C16.6773 40.0296 13.2341 39.1428 10.1873 37.4273L13.1311 32.1991C15.2639 33.4 17.6741 34.0207 20.1216 33.9995C22.5691 33.9782 24.9682 33.3157 27.0798 32.0779L30.114 37.2542Z"
                        fill="#0032E6" fill-opacity="0.3" />
                    <path id="svg-purple" class="svg-part"
                        d="M10.1677 37.4162C7.07068 35.6678 4.49591 33.1252 2.70871 30.0504C0.921511 26.9756 -0.0134606 23.4799 0.000146382 19.9235L6.0001 19.9464C5.99058 22.4359 6.64506 24.883 7.8961 27.0353C9.14713 29.1877 10.9495 30.9675 13.1174 32.1914L10.1677 37.4162Z"
                        fill="#732645" fill-opacity="0.3" />
                    <path id="svg-turquoise" class="svg-part"
                        d="M0 20C3.05676e-07 16.5035 0.916665 13.068 2.65858 10.0363C4.40049 7.00458 6.90678 4.48248 9.92751 2.72155L12.9493 7.90508C10.8347 9.13774 9.08034 10.9032 7.86101 13.0254C6.64167 15.1476 6 17.5524 6 20L0 20Z"
                        fill="#137E84" fill-opacity="0.3" />
                    <path id="svg-green" class="svg-part"
                        d="M9.86507 2.7581C12.8794 0.986243 16.3056 0.0356042 19.802 0.00098058C23.2983 -0.0336431 26.7426 0.848959 29.7915 2.56077L26.854 7.79254C24.7199 6.59427 22.3088 5.97645 19.8614 6.00069C17.4139 6.02492 15.0156 6.69037 12.9056 7.93067L9.86507 2.7581Z"
                        fill="#3A8340" fill-opacity="0.3" />
                    <path id="svg-yellow" class="svg-part"
                        d="M29.7895 2.55968C32.856 4.28091 35.4144 6.7802 37.2068 9.80556C38.9992 12.8309 39.9623 16.2754 39.9989 19.7917L33.9992 19.8542C33.9736 17.3928 33.2994 14.9816 32.0447 12.8639C30.7901 10.7461 28.9992 8.99664 26.8527 7.79177L29.7895 2.55968Z"
                        fill="#FFCC33" fill-opacity="0.3" />
                </svg>